<svg xmlns="http://www.w3.org/2000/svg" width="64" height="64" viewBox="0 0 64 64" fill="none" role="img"><defs><linearGradient id="t-bg" x1="0" y1="0" x2="0" y2="64" gradientUnits="userSpaceOnUse"><stop offset="0" stop-color="#2C51B6"/><stop offset="1" stop-color="#111D44"/></linearGradient><radialGradient id="t-glow" cx=".32" cy=".78" r=".72"><stop offset="0" stop-color="#5D87E2" stop-opacity=".45"/><stop offset="1" stop-color="#5D87E2" stop-opacity="0"/></radialGradient></defs><rect width="64" height="64" rx="14.08" fill="url(#t-bg)"/><rect width="64" height="64" rx="14.08" fill="url(#t-glow)"/><g transform="translate(1.03 -1.23) scale(0.12098)"><g stroke-linecap="round" stroke-linejoin="round"><clipPath id="s-tub"><path d="M92 232H420L383.1 386Q374 412 348 412H164Q138 412 128.9 386Z"/></clipPath><g clip-path="url(#s-tub)"><rect x="92" y="232" width="328" height="180" fill="#7DEBC7"/></g><path d="M92 232H420L383.1 386Q374 412 348 412H164Q138 412 128.9 386ZM226 392H286V340H325L256 258L187 340H226Z" fill="#FFFFFF" fill-rule="evenodd"/><path d="M168 232C168 130 344 130 344 232" fill="none" stroke="#FFFFFF" stroke-width="30"/></g></g><rect x=".5" y=".5" width="63" height="63" rx="13.58" fill="none" stroke="#FFFFFF" stroke-opacity=".12"/></svg>
