<svg xmlns="http://www.w3.org/2000/svg" width="512" height="512" viewBox="0 0 512 512" fill="none" role="img"><defs><linearGradient id="ml-rise" x1="92" y1="412" x2="420" y2="232" gradientUnits="userSpaceOnUse"><stop offset="0" stop-color="#2C51B6"/><stop offset="1" stop-color="#00A77B"/></linearGradient></defs><title>Cart Rebound</title><g transform="translate(-119.63 -147.1) scale(1.46732)"><g stroke-linecap="round" stroke-linejoin="round"><path d="M108 438H404" fill="none" stroke="#111D44" stroke-opacity="0.1" stroke-width="9"/><clipPath id="ml-tub"><path d="M92 232H420L383.1 386Q374 412 348 412H164Q138 412 128.9 386Z"/></clipPath><g clip-path="url(#ml-tub)"><rect x="92" y="232" width="328" height="180" fill="url(#ml-rise)"/></g><mask id="ml-cut" maskUnits="userSpaceOnUse" x="0" y="0" width="512" height="512"><rect width="512" height="512" fill="#fff"/><path d="M226 392H286V340H325L256 258L187 340H226Z" fill="#000"/></mask><path d="M92 232H420L383.1 386Q374 412 348 412H164Q138 412 128.9 386Z" fill="#111D44" mask="url(#ml-cut)"/><path d="M168 232C168 130 344 130 344 232" fill="none" stroke="#111D44" stroke-width="30"/></g></g></svg>
